<svg width="245" height="213" viewBox="0 0 245 213" fill="none" xmlns="http://www.w3.org/2000/svg">
<g clip-path="url(#clip0)">
<path d="M100.951 50.1222H99.8387V18.3746C99.8387 15.9616 99.3825 13.5723 98.4961 11.343C97.6097 9.11363 96.3105 7.08802 94.6727 5.38178C93.0349 3.67553 91.0906 2.32207 88.9507 1.39866C86.8108 0.475247 84.5172 -2.28079e-05 82.201 -1.52587e-05H17.6376C15.3214 -2.28079e-05 13.0279 0.475247 10.888 1.39866C8.7481 2.32207 6.80374 3.67554 5.16593 5.38178C3.52813 7.08803 2.22895 9.11364 1.34258 11.343C0.456203 13.5723 -3.62318e-06 15.9616 0 18.3746V192.544C-2.1739e-06 194.957 0.456206 197.347 1.34258 199.576C2.22895 201.805 3.52813 203.831 5.16594 205.537C6.80374 207.243 8.7481 208.597 10.888 209.52C13.0279 210.444 15.3214 210.919 17.6376 210.919H82.201C84.5172 210.919 86.8108 210.444 88.9507 209.52C91.0906 208.597 93.0349 207.243 94.6727 205.537C96.3105 203.831 97.6097 201.805 98.4961 199.576C99.3825 197.347 99.8387 194.957 99.8387 192.544V72.7207H100.951V50.1222Z" fill="#E6E6E6"/>
<path d="M82.9127 4.78046H74.485C74.8726 5.77035 75.0205 6.84435 74.9158 7.90785C74.8111 8.97134 74.457 9.99168 73.8846 10.879C73.3122 11.7663 72.5391 12.4934 71.6335 12.9961C70.7278 13.4988 69.7174 13.7618 68.6912 13.7619H31.7036C30.6774 13.7618 29.667 13.4988 28.7614 12.9961C27.8557 12.4934 27.0826 11.7663 26.5102 10.879C25.9378 9.99169 25.5837 8.97134 25.479 7.90785C25.3743 6.84435 25.5222 5.77035 25.9098 4.78046H18.0383C16.3086 4.78045 14.5958 5.13538 12.9978 5.82497C11.3997 6.51456 9.94772 7.52532 8.72463 8.79952C7.50154 10.0737 6.53133 11.5864 5.86939 13.2512C5.20746 14.9161 4.86676 16.7004 4.86676 18.5024V192.417C4.86676 194.219 5.20746 196.003 5.86939 197.668C6.53132 199.333 7.50153 200.845 8.72462 202.119C9.94772 203.394 11.3997 204.404 12.9978 205.094C14.5958 205.784 16.3086 206.139 18.0383 206.139H82.9127C84.6424 206.139 86.3552 205.784 87.9532 205.094C89.5513 204.404 91.0033 203.394 92.2264 202.119C93.4495 200.845 94.4197 199.333 95.0816 197.668C95.7436 196.003 96.0843 194.219 96.0843 192.417V18.5024C96.0843 16.7004 95.7436 14.9161 95.0816 13.2512C94.4197 11.5864 93.4495 10.0737 92.2264 8.79952C91.0033 7.52532 89.5513 6.51456 87.9532 5.82497C86.3552 5.13538 84.6424 4.78045 82.9127 4.78046V4.78046Z" fill="white"/>
<path d="M31.3623 40.1353H27.4889C27.3527 40.1353 27.2221 40.1917 27.1258 40.292C27.0294 40.3923 26.9753 40.5284 26.9753 40.6703V42.4415C26.9753 42.5834 27.0294 42.7195 27.1258 42.8198C27.2221 42.9202 27.3527 42.9765 27.4889 42.9765H28.1308V45.6304H30.7204V42.9765H31.3623C31.4985 42.9765 31.6292 42.9202 31.7255 42.8198C31.8218 42.7195 31.8759 42.5834 31.8759 42.4415V40.6703C31.8759 40.5284 31.8218 40.3923 31.7255 40.292C31.6292 40.1917 31.4985 40.1353 31.3623 40.1353V40.1353Z" fill="#E6E6E6"/>
<path d="M35.242 56.3455C32.8697 52.7292 31.657 48.4236 31.7775 44.0453C31.7797 43.9443 31.7482 43.8456 31.6885 43.766C31.6287 43.6864 31.5443 43.6308 31.4497 43.6087V42.8434H27.3588V43.5981H27.3024C27.1911 43.5982 27.0844 43.6444 27.0058 43.7265C26.9272 43.8087 26.8831 43.9199 26.8832 44.0359C26.8832 44.0465 26.8836 44.0572 26.8844 44.0678C27.2067 48.7481 26.1184 52.9453 23.6195 56.6594C23.4757 56.8728 23.4023 57.1291 23.4102 57.3898L23.8575 71.8048C23.8682 72.1263 23.9978 72.4311 24.2191 72.6555C24.4403 72.8799 24.7363 73.0066 25.0451 73.0092H34.298C34.6103 73.0065 34.9093 72.8769 35.1313 72.648C35.3533 72.4191 35.4806 72.1089 35.4863 71.7835L35.6587 57.7877C35.6638 57.274 35.5184 56.7709 35.242 56.3455Z" fill="#E6E6E6"/>
<path d="M33.7772 61.1337H25.7232C25.604 61.1337 25.4862 61.1606 25.3779 61.2124C25.2696 61.2643 25.1733 61.34 25.0957 61.4342C25.018 61.5285 24.9609 61.6391 24.9282 61.7586C24.8954 61.878 24.8879 62.0034 24.906 62.1261L26.123 70.3677H33.1116L34.5899 62.1539C34.6123 62.0295 34.6081 61.9015 34.5776 61.779C34.5471 61.6564 34.4911 61.5424 34.4135 61.445C34.3359 61.3476 34.2387 61.2692 34.1287 61.2154C34.0187 61.1616 33.8987 61.1337 33.7772 61.1337V61.1337Z" fill="white"/>
<path d="M74.4813 83.3173H70.6078C70.4716 83.3173 70.341 83.3737 70.2447 83.474C70.1484 83.5743 70.0943 83.7104 70.0943 83.8523V85.6235C70.0943 85.7654 70.1484 85.9015 70.2447 86.0018C70.341 86.1022 70.4716 86.1585 70.6078 86.1585H71.2497V88.8124H73.8394V86.1585H74.4813C74.6175 86.1585 74.7481 86.1022 74.8444 86.0018C74.9407 85.9015 74.9948 85.7654 74.9948 85.6235V83.8523C74.9948 83.7104 74.9407 83.5743 74.8444 83.474C74.7481 83.3737 74.6175 83.3173 74.4813 83.3173Z" fill="#E6E6E6"/>
<path d="M78.3609 99.5275C75.9887 95.9113 74.776 91.6056 74.8965 87.2273C74.8986 87.1263 74.8672 87.0276 74.8074 86.948C74.7476 86.8685 74.6633 86.8129 74.5687 86.7907V86.0254H70.4778V86.7801H70.4214C70.3663 86.7801 70.3117 86.7915 70.2608 86.8136C70.2099 86.8356 70.1637 86.8679 70.1248 86.9086C70.0858 86.9492 70.055 86.9975 70.0339 87.0506C70.0129 87.1036 70.0021 87.1605 70.0022 87.2179C70.0022 87.2286 70.0026 87.2392 70.0033 87.2498C70.3256 91.9301 69.2373 96.1273 66.7385 99.8414C66.5947 100.055 66.5212 100.311 66.5291 100.572L66.9765 114.987C66.9872 115.308 67.1167 115.613 67.338 115.838C67.5593 116.062 67.8552 116.189 68.164 116.191H77.417C77.7293 116.189 78.0283 116.059 78.2503 115.83C78.4722 115.601 78.5996 115.291 78.6053 114.966L78.7776 100.97C78.7827 100.456 78.6374 99.9529 78.3609 99.5275V99.5275Z" fill="#E6E6E6"/>
<path d="M76.8962 104.316H68.8422C68.723 104.316 68.6052 104.343 68.4969 104.394C68.3885 104.446 68.2923 104.522 68.2146 104.616C68.137 104.711 68.0799 104.821 68.0471 104.941C68.0144 105.06 68.0068 105.185 68.0249 105.308L69.242 113.55H76.2306L77.7089 105.336C77.7313 105.212 77.7271 105.083 77.6966 104.961C77.6661 104.838 77.6101 104.724 77.5325 104.627C77.4549 104.53 77.3576 104.451 77.2476 104.397C77.1377 104.344 77.0177 104.316 76.8962 104.316H76.8962Z" fill="white"/>
<path d="M25.9168 144.364H24.0794C24.0148 144.364 23.9528 144.391 23.9072 144.438C23.8615 144.486 23.8358 144.55 23.8358 144.618V145.458C23.8358 145.525 23.8615 145.59 23.9072 145.637C23.9528 145.685 24.0148 145.712 24.0794 145.712H24.3839V146.971H25.6123V145.712H25.9168C25.9814 145.712 26.0433 145.685 26.089 145.637C26.1347 145.59 26.1604 145.525 26.1604 145.458V144.618C26.1604 144.55 26.1347 144.486 26.089 144.438C26.0433 144.391 25.9814 144.364 25.9168 144.364Z" fill="#E6E6E6"/>
<path d="M27.757 152.053C26.6318 150.338 26.0565 148.295 26.1137 146.219C26.1147 146.171 26.0998 146.124 26.0714 146.086C26.0431 146.048 26.0031 146.022 25.9582 146.012V145.649H24.0177V146.007H23.991C23.9648 146.007 23.9389 146.012 23.9148 146.022C23.8906 146.033 23.8687 146.048 23.8502 146.067C23.8318 146.087 23.8171 146.11 23.8072 146.135C23.7972 146.16 23.7921 146.187 23.7921 146.214C23.7921 146.219 23.7923 146.224 23.7927 146.229C23.9718 148.349 23.423 150.465 22.244 152.202C22.1758 152.303 22.1409 152.425 22.1447 152.549L22.3568 159.386C22.3619 159.539 22.4234 159.683 22.5284 159.79C22.6333 159.896 22.7737 159.956 22.9202 159.958H27.3093C27.4574 159.956 27.5993 159.895 27.7045 159.786C27.8098 159.678 27.8702 159.531 27.8729 159.376L27.9547 152.737C27.9571 152.494 27.8882 152.255 27.757 152.053V152.053Z" fill="#E6E6E6"/>
<path d="M27.1254 154.567H22.9375V156.748H27.1254V154.567Z" fill="white"/>
<path d="M34.4697 144.364H32.6323C32.5677 144.364 32.5058 144.391 32.4601 144.438C32.4144 144.486 32.3887 144.55 32.3887 144.618V145.458C32.3887 145.525 32.4144 145.59 32.4601 145.637C32.5058 145.685 32.5677 145.712 32.6323 145.712H32.9368V146.971H34.1652V145.712H34.4697C34.5343 145.712 34.5963 145.685 34.6419 145.637C34.6876 145.59 34.7133 145.525 34.7133 145.458V144.618C34.7133 144.55 34.6876 144.486 34.6419 144.438C34.5963 144.391 34.5343 144.364 34.4697 144.364Z" fill="#E6E6E6"/>
<path d="M36.31 152.053C35.1847 150.338 34.6095 148.295 34.6666 146.219C34.6676 146.171 34.6527 146.124 34.6244 146.086C34.596 146.048 34.556 146.022 34.5111 146.012V145.649H32.5706V146.007H32.5439C32.5177 146.007 32.4918 146.012 32.4677 146.022C32.4436 146.033 32.4216 146.048 32.4032 146.067C32.3847 146.087 32.3701 146.11 32.3601 146.135C32.3501 146.16 32.345 146.187 32.345 146.214C32.345 146.219 32.3452 146.224 32.3456 146.229C32.5247 148.349 31.9759 150.465 30.7969 152.202C30.7287 152.303 30.6939 152.425 30.6976 152.549L30.9098 159.386C30.9149 159.539 30.9763 159.683 31.0813 159.79C31.1862 159.896 31.3266 159.956 31.4731 159.958H35.8622C36.0103 159.956 36.1522 159.895 36.2575 159.786C36.3628 159.678 36.4232 159.531 36.4259 159.376L36.5076 152.737C36.5101 152.494 36.4411 152.255 36.31 152.053Z" fill="#E6E6E6"/>
<path d="M35.6783 154.567H31.4904V156.748H35.6783V154.567Z" fill="white"/>
<path d="M43.0227 144.364H41.1853C41.1207 144.364 41.0587 144.391 41.0131 144.438C40.9674 144.486 40.9417 144.55 40.9417 144.618V145.458C40.9417 145.525 40.9674 145.59 41.0131 145.637C41.0587 145.685 41.1207 145.712 41.1853 145.712H41.4898V146.971H42.7182V145.712H43.0227C43.0873 145.712 43.1492 145.685 43.1949 145.637C43.2406 145.59 43.2663 145.525 43.2663 145.458V144.618C43.2663 144.55 43.2406 144.486 43.1949 144.438C43.1492 144.391 43.0873 144.364 43.0227 144.364Z" fill="#E6E6E6"/>
<path d="M44.8629 152.053C43.7376 150.338 43.1624 148.295 43.2195 146.219C43.2205 146.171 43.2056 146.124 43.1773 146.086C43.1489 146.048 43.1089 146.022 43.064 146.012V145.649H41.1235V146.007H41.0968C41.0706 146.007 41.0448 146.012 41.0206 146.022C40.9965 146.033 40.9745 146.048 40.9561 146.067C40.9376 146.087 40.923 146.11 40.913 146.135C40.903 146.16 40.8979 146.187 40.8979 146.214C40.8979 146.219 40.8981 146.224 40.8985 146.229C41.0776 148.349 40.5288 150.465 39.3498 152.202C39.2816 152.303 39.2468 152.425 39.2505 152.549L39.4627 159.386C39.4678 159.539 39.5292 159.683 39.6342 159.79C39.7392 159.896 39.8795 159.956 40.026 159.958H44.4151C44.5633 159.956 44.7051 159.895 44.8104 159.786C44.9157 159.678 44.9761 159.531 44.9788 159.376L45.0605 152.737C45.063 152.494 44.994 152.255 44.8629 152.053Z" fill="#E6E6E6"/>
<path d="M44.2312 154.567H40.0433V156.748H44.2312V154.567Z" fill="white"/>
<path d="M67.7522 127.659H63.8788C63.8113 127.659 63.7446 127.672 63.6823 127.699C63.62 127.726 63.5633 127.766 63.5157 127.815C63.468 127.865 63.4301 127.924 63.4043 127.989C63.3785 128.054 63.3652 128.123 63.3652 128.194V129.965C63.3652 130.107 63.4193 130.243 63.5157 130.343C63.612 130.443 63.7426 130.5 63.8788 130.5H64.5207V133.154H67.1103V130.5H67.7522C67.8884 130.5 68.0191 130.443 68.1154 130.343C68.2117 130.243 68.2658 130.107 68.2658 129.965V128.194C68.2658 128.123 68.2525 128.054 68.2267 127.989C68.2009 127.924 68.163 127.865 68.1154 127.815C68.0677 127.766 68.0111 127.726 67.9488 127.699C67.8864 127.672 67.8197 127.659 67.7522 127.659V127.659Z" fill="#E6E6E6"/>
<path d="M71.6319 143.869C69.2597 140.253 68.047 135.947 68.1675 131.569C68.1696 131.468 68.1382 131.369 68.0784 131.289C68.0186 131.21 67.9343 131.154 67.8396 131.132V130.367H63.7488V131.121H63.6924C63.6373 131.121 63.5827 131.133 63.5318 131.155C63.4809 131.177 63.4347 131.209 63.3957 131.25C63.3568 131.29 63.326 131.339 63.3049 131.392C63.2839 131.445 63.2731 131.502 63.2732 131.559C63.2732 131.57 63.2736 131.58 63.2743 131.591C63.5966 136.271 62.5084 140.469 60.0095 144.183C59.8657 144.396 59.7922 144.652 59.8001 144.913L60.2475 159.328C60.2582 159.65 60.3877 159.954 60.609 160.179C60.8303 160.403 61.1262 160.53 61.435 160.532H70.688C71.0003 160.53 71.2993 160.4 71.5213 160.171C71.7432 159.942 71.8706 159.632 71.8763 159.307L72.0486 145.311C72.0537 144.797 71.9084 144.294 71.6319 143.869Z" fill="#E6E6E6"/>
<path d="M70.1672 148.657H62.1132C61.994 148.657 61.8762 148.684 61.7678 148.736C61.6595 148.788 61.5633 148.863 61.4856 148.958C61.408 149.052 61.3509 149.162 61.3181 149.282C61.2854 149.401 61.2778 149.527 61.2959 149.649L62.513 157.891H69.5016L70.9799 149.677C71.0023 149.553 70.9981 149.425 70.9676 149.302C70.9371 149.18 70.8811 149.066 70.8035 148.968C70.7259 148.871 70.6286 148.793 70.5187 148.739C70.4087 148.685 70.2887 148.657 70.1672 148.657V148.657Z" fill="white"/>
<path d="M69.8669 74.8649H46.7773C48.3916 65.7725 48.0202 54.7931 46.7773 42.9856H69.8669C68.657 54.7932 68.2955 65.7725 69.8669 74.8649Z" fill="#E6E6E6"/>
<path d="M58.4612 63.852C61.534 63.852 64.0249 61.257 64.0249 58.0558C64.0249 54.8546 61.534 52.2596 58.4612 52.2596C55.3884 52.2596 52.8975 54.8546 52.8975 58.0558C52.8975 61.257 55.3884 63.852 58.4612 63.852Z" fill="white"/>
<path d="M48.7246 117.177H25.6351C27.2494 108.085 26.878 97.1057 25.6351 85.2981H48.7246C47.5148 97.1057 47.1533 108.085 48.7246 117.177Z" fill="#E6E6E6"/>
<path d="M37.319 106.165C40.3918 106.165 42.8828 103.57 42.8828 100.368C42.8828 97.1672 40.3918 94.5721 37.319 94.5721C34.2463 94.5721 31.7553 97.1672 31.7553 100.368C31.7553 103.57 34.2463 106.165 37.319 106.165Z" fill="white"/>
<path d="M82.9416 76.8936H59.8521C61.4664 67.8012 61.095 56.8218 59.8521 45.0142H82.9416C81.7318 56.8218 81.3703 67.8012 82.9416 76.8936Z" fill="#E6E6E6"/>
<path d="M71.536 65.8807C74.6088 65.8807 77.0997 63.2856 77.0997 60.0845C77.0997 56.8833 74.6088 54.2882 71.536 54.2882C68.4632 54.2882 65.9722 56.8833 65.9722 60.0845C65.9722 63.2856 68.4632 65.8807 71.536 65.8807Z" fill="white"/>
<path d="M82.9416 75.4445H59.8521C61.4664 66.3521 61.095 55.3727 59.8521 43.5652H82.9416C81.7318 55.3728 81.3703 66.3521 82.9416 75.4445Z" fill="#E6E6E6"/>
<path d="M71.536 64.4316C74.6088 64.4316 77.0997 61.8366 77.0997 58.6354C77.0997 55.4342 74.6088 52.8392 71.536 52.8392C68.4632 52.8392 65.9722 55.4342 65.9722 58.6354C65.9722 61.8366 68.4632 64.4316 71.536 64.4316Z" fill="white"/>
<path d="M82.9416 76.8936H59.8521C61.4664 67.8012 61.095 56.8218 59.8521 45.0142H82.9416C81.7318 56.8218 81.3703 67.8012 82.9416 76.8936Z" fill="#E6E6E6"/>
<path d="M71.536 65.8807C74.6088 65.8807 77.0997 63.2856 77.0997 60.0845C77.0997 56.8833 74.6088 54.2882 71.536 54.2882C68.4632 54.2882 65.9722 56.8833 65.9722 60.0845C65.9722 63.2856 68.4632 65.8807 71.536 65.8807Z" fill="white"/>
<path d="M88.2272 73.126H12.5604V81.8204H88.2272V73.126Z" fill="#E6E6E6"/>
<path d="M88.2272 116.308H12.5604V125.002H88.2272V116.308Z" fill="#E6E6E6"/>
<path d="M88.2272 159.49H12.5604V168.184H88.2272V159.49Z" fill="#E6E6E6"/>
<path d="M219.853 194.763L201.002 180.872C207.36 174.42 213.142 165.233 218.672 154.845L237.523 168.736C229.991 177.648 223.61 186.394 219.853 194.763Z" fill="white"/>
<path d="M219.858 179.974C222.931 179.974 225.422 177.379 225.422 174.178C225.422 170.977 222.931 168.382 219.858 168.382C216.785 168.382 214.294 170.977 214.294 174.178C214.294 177.379 216.785 179.974 219.858 179.974Z" fill="white"/>
<path d="M128.918 131.378H126.849C126.776 131.378 126.706 131.408 126.655 131.462C126.603 131.516 126.575 131.588 126.575 131.664V132.61C126.575 132.648 126.582 132.685 126.595 132.72C126.609 132.754 126.629 132.786 126.655 132.812C126.68 132.839 126.711 132.86 126.744 132.874C126.777 132.889 126.813 132.896 126.849 132.896H127.192V134.314H128.575V132.896H128.918C128.991 132.896 129.061 132.866 129.112 132.812C129.164 132.759 129.192 132.686 129.192 132.61V131.664C129.192 131.588 129.164 131.516 129.112 131.462C129.061 131.408 128.991 131.378 128.918 131.378V131.378Z" fill="#E6E6E6"/>
<path d="M130.991 140.038C129.723 138.106 129.076 135.806 129.14 133.467C129.141 133.413 129.124 133.36 129.092 133.318C129.06 133.275 129.015 133.246 128.965 133.234V132.825H126.779V133.228H126.749C126.72 133.228 126.691 133.234 126.663 133.246C126.636 133.258 126.612 133.275 126.591 133.297C126.57 133.318 126.554 133.344 126.542 133.373C126.531 133.401 126.525 133.431 126.525 133.462C126.525 133.468 126.526 133.473 126.526 133.479C126.728 135.866 126.11 138.249 124.782 140.206C124.705 140.32 124.666 140.457 124.67 140.596L124.909 148.297C124.915 148.468 124.984 148.631 125.102 148.751C125.22 148.871 125.378 148.939 125.543 148.94H130.486C130.653 148.939 130.813 148.869 130.932 148.747C131.05 148.625 131.118 148.459 131.121 148.285L131.213 140.808C131.216 140.534 131.138 140.265 130.991 140.038V140.038Z" fill="white"/>
<path opacity="0.2" d="M128.487 131.687C128.487 131.85 128.424 132.007 128.313 132.123C128.202 132.238 128.052 132.303 127.895 132.303C127.738 132.303 127.587 132.238 127.476 132.123C127.365 132.007 127.303 131.85 127.303 131.687" fill="black"/>
<path d="M130.028 141.522H125.855V144.42H130.028V141.522Z" fill="white"/>
<path d="M194.4 161.462H190.527C190.391 161.462 190.26 161.518 190.164 161.619C190.068 161.719 190.013 161.855 190.013 161.997V163.768C190.013 163.91 190.068 164.046 190.164 164.146C190.26 164.247 190.391 164.303 190.527 164.303H191.169V166.957H193.759V164.303H194.4C194.537 164.303 194.667 164.247 194.764 164.146C194.86 164.046 194.914 163.91 194.914 163.768V161.997C194.914 161.855 194.86 161.719 194.764 161.619C194.667 161.518 194.537 161.462 194.4 161.462V161.462Z" fill="#E6E6E6"/>
<path d="M198.28 177.672C195.908 174.056 194.695 169.75 194.816 165.372C194.818 165.271 194.786 165.172 194.727 165.093C194.667 165.013 194.582 164.957 194.488 164.935V164.17H190.397V164.925H190.341C190.285 164.925 190.231 164.936 190.18 164.958C190.129 164.98 190.083 165.012 190.044 165.053C190.005 165.094 189.974 165.142 189.953 165.195C189.932 165.248 189.921 165.305 189.921 165.362C189.921 165.373 189.922 165.384 189.923 165.394C190.245 170.075 189.157 174.272 186.658 177.986C186.514 178.199 186.44 178.456 186.448 178.716L186.896 193.131C186.906 193.453 187.036 193.758 187.257 193.982C187.478 194.206 187.774 194.333 188.083 194.336H197.336C197.648 194.333 197.947 194.203 198.169 193.975C198.391 193.746 198.519 193.435 198.524 193.11L198.697 179.114C198.702 178.601 198.557 178.097 198.28 177.672V177.672Z" fill="white"/>
<path opacity="0.2" d="M193.593 162.039C193.593 162.345 193.476 162.639 193.268 162.855C193.061 163.072 192.779 163.193 192.485 163.193C192.191 163.193 191.909 163.072 191.702 162.855C191.494 162.639 191.377 162.345 191.377 162.039" fill="black"/>
<path d="M196.815 182.46H188.761C188.642 182.46 188.524 182.487 188.416 182.539C188.308 182.591 188.211 182.666 188.134 182.761C188.056 182.855 187.999 182.966 187.966 183.085C187.934 183.205 187.926 183.33 187.944 183.453L189.161 191.694H196.15L197.628 183.48C197.65 183.356 197.646 183.228 197.616 183.105C197.585 182.983 197.529 182.869 197.452 182.772C197.374 182.674 197.277 182.596 197.167 182.542C197.057 182.488 196.937 182.46 196.815 182.46V182.46Z" fill="white"/>
<path d="M183.349 194.74H160.259C161.874 185.648 161.502 174.668 160.259 162.861H183.349C182.139 174.668 181.778 185.648 183.349 194.74Z" fill="white"/>
<path d="M171.943 183.727C175.016 183.727 177.507 181.132 177.507 177.931C177.507 174.73 175.016 172.135 171.943 172.135C168.87 172.135 166.379 174.73 166.379 177.931C166.379 181.132 168.87 183.727 171.943 183.727Z" fill="white"/>
<path d="M88.9071 94.4112L94.0905 93.9203L97.3891 85.575L91.4989 82.1385L88.9071 94.4112Z" fill="#FFB8B8"/>
<path d="M136.477 117.322C136.65 116.874 136.717 116.39 136.675 115.909C136.632 115.429 136.481 114.966 136.233 114.558C135.985 114.151 135.648 113.811 135.249 113.566C134.85 113.321 134.401 113.178 133.938 113.149L125.89 112.649L124.706 116.754L132.99 119.125C133.683 119.323 134.421 119.249 135.064 118.916C135.707 118.583 136.21 118.016 136.477 117.322V117.322Z" fill="#FFB8B8"/>
<path d="M127.836 119.194L127.747 111.491L109.871 108.519L96.0989 92.0644C95.3824 91.2082 94.3923 90.6517 93.312 90.4978C92.2318 90.3439 91.1346 90.6031 90.2238 91.2274C89.6723 91.6054 89.2072 92.105 88.8615 92.6908C88.5157 93.2766 88.2976 93.9344 88.2227 94.6177C88.1478 95.301 88.2179 95.9931 88.428 96.645C88.638 97.297 88.983 97.893 89.4385 98.3908L100.8 112.957L127.836 119.194Z" fill="#575A89"/>
<path d="M84.9017 205.848H89.6139L101.302 150.796L113.411 167.803L120.479 204.621H124.955L124.013 165.103L108.227 122.884H92.6769C88.4274 130.896 85.0938 139.155 88.9071 147.675L84.9017 205.848Z" fill="#2F2E41"/>
<path d="M117.59 209.192C117.538 209.366 117.522 209.549 117.543 209.73C117.565 209.91 117.622 210.084 117.713 210.24C117.804 210.395 117.925 210.529 118.069 210.632C118.214 210.734 118.377 210.804 118.549 210.836L130.08 212.968C130.536 213.054 131.006 212.965 131.402 212.715C131.799 212.465 132.094 212.073 132.232 211.613V211.613C132.367 211.173 132.348 210.697 132.179 210.27C132.011 209.843 131.703 209.491 131.31 209.277C128.775 207.921 126.593 205.945 124.951 203.518C123.684 204.747 122.267 204.631 120.763 203.725L119.168 203.933L117.59 209.192Z" fill="#2F2E41"/>
<path d="M82.7199 209.192C82.6678 209.366 82.6518 209.549 82.673 209.73C82.6942 209.91 82.7521 210.084 82.8428 210.24C82.9336 210.395 83.055 210.529 83.1992 210.632C83.3433 210.734 83.5069 210.804 83.6788 210.836L95.2096 212.968C95.6653 213.054 96.1357 212.965 96.5321 212.715C96.9286 212.465 97.2237 212.073 97.3619 211.613V211.613C97.4963 211.173 97.4775 210.697 97.3089 210.27C97.1402 209.843 96.8325 209.491 96.4398 209.277C93.9044 207.921 91.7224 205.945 90.0807 203.518C88.8134 204.747 87.3969 204.631 85.8928 203.725L84.2974 203.933L82.7199 209.192Z" fill="#2F2E41"/>
<path d="M97.5069 88.6431C101.15 88.6431 104.104 85.566 104.104 81.7703C104.104 77.9746 101.15 74.8975 97.5069 74.8975C93.8634 74.8975 90.9098 77.9746 90.9098 81.7703C90.9098 85.566 93.8634 88.6431 97.5069 88.6431Z" fill="#FFB8B8"/>
<path d="M91.6167 124.725L108.816 124.234L103.765 107.673C106.904 102.43 103.745 97.1928 99.274 91.9567L95.7398 89.5022L90.0852 89.0113C87.6369 91.7405 86.2973 95.3507 86.347 99.0858C86.4589 107.084 87.8183 115.791 91.6167 124.725Z" fill="#575A89"/>
<path d="M131.133 135.873C131.461 135.532 131.706 135.115 131.848 134.656C131.991 134.196 132.026 133.709 131.952 133.232C131.878 132.756 131.696 132.305 131.422 131.916C131.148 131.528 130.789 131.212 130.375 130.996L123.165 127.238L120.525 130.527L127.247 136.102C127.809 136.567 128.515 136.802 129.232 136.759C129.949 136.717 130.626 136.402 131.133 135.873V135.873Z" fill="#FFB8B8"/>
<path d="M122.482 134.052L125.309 126.934L109.996 116.876L103.548 96.1039C103.213 95.0231 102.512 94.1057 101.577 93.5215C100.642 92.9373 99.5358 92.7259 98.4626 92.9266V92.9266C97.8129 93.0481 97.1967 93.3168 96.6576 93.7137C96.1185 94.1106 95.6696 94.626 95.3427 95.2235C95.0158 95.821 94.8189 96.4859 94.7659 97.1714C94.7128 97.8569 94.8049 98.5462 95.0357 99.1905L99.9808 117.239L122.482 134.052Z" fill="#575A89"/>
<path d="M86.6688 79.0703C86.6688 81.7445 88.3359 85.886 90.4386 87.6612C91.8534 88.8557 93.7231 88.8054 94.4439 87.1703C95.1834 85.493 97.7325 81.5504 102.219 79.0703C108.2 75.7641 100.098 70.1078 94.4439 70.9703C90.1952 71.6184 86.6688 74.5968 86.6688 79.0703Z" fill="#2F2E41"/>
<path d="M90.6742 75.3885C93.2767 75.3885 95.3864 73.1906 95.3864 70.4793C95.3864 67.7681 93.2767 65.5702 90.6742 65.5702C88.0717 65.5702 85.962 67.7681 85.962 70.4793C85.962 73.1906 88.0717 75.3885 90.6742 75.3885Z" fill="#2F2E41"/>
<path d="M96.0932 68.7612C96.0927 67.5235 95.6433 66.3318 94.835 65.4249C94.0266 64.5179 92.9191 63.9627 91.7344 63.8706C91.8515 63.8615 91.9686 63.852 92.0878 63.852C93.3376 63.852 94.5362 64.3692 95.4199 65.2899C96.3036 66.2105 96.8 67.4592 96.8 68.7612C96.8 70.0631 96.3036 71.3118 95.4199 72.2324C94.5362 73.1531 93.3376 73.6703 92.0878 73.6703C91.9686 73.6703 91.8515 73.6608 91.7344 73.6517C92.9191 73.5596 94.0266 73.0044 94.835 72.0975C95.6433 71.1905 96.0927 69.9988 96.0932 68.7612Z" fill="#2F2E41"/>
<path d="M97.6247 84.2249C98.2103 84.2249 98.685 83.5655 98.685 82.7521C98.685 81.9388 98.2103 81.2794 97.6247 81.2794C97.0391 81.2794 96.5645 81.9388 96.5645 82.7521C96.5645 83.5655 97.0391 84.2249 97.6247 84.2249Z" fill="#FFB8B8"/>
<path d="M231.136 196.845H157.782L142.248 120.345H128.992V116.913H144.919L160.453 193.413H231.136V196.845Z" fill="#3F3D56"/>
<path d="M168.532 210.821C172.431 210.821 175.592 207.528 175.592 203.465C175.592 199.403 172.431 196.11 168.532 196.11C164.632 196.11 161.471 199.403 161.471 203.465C161.471 207.528 164.632 210.821 168.532 210.821Z" fill="#3F3D56"/>
<path d="M221.251 210.821C225.151 210.821 228.312 207.528 228.312 203.465C228.312 199.403 225.151 196.11 221.251 196.11C217.352 196.11 214.191 199.403 214.191 203.465C214.191 207.528 217.352 210.821 221.251 210.821Z" fill="#3F3D56"/>
<path d="M229.799 195.229H158.429L145.837 130.398H241.616C242.105 130.398 242.588 130.509 243.032 130.722C243.476 130.935 243.87 131.246 244.188 131.632C244.505 132.019 244.739 132.473 244.872 132.963C245.005 133.453 245.035 133.967 244.959 134.47L233.141 192.251C233.019 193.082 232.615 193.84 232.001 194.387C231.388 194.934 230.606 195.232 229.799 195.229V195.229ZM159.204 194.248H229.799C230.381 194.251 230.945 194.035 231.388 193.641C231.831 193.246 232.123 192.699 232.211 192.099L244.029 134.318C244.083 133.955 244.062 133.584 243.966 133.23C243.87 132.877 243.701 132.549 243.472 132.27C243.243 131.99 242.958 131.766 242.638 131.612C242.317 131.459 241.969 131.379 241.616 131.379H146.979L159.204 194.248Z" fill="#3F3D56"/>
<path d="M172.304 195.021L164.057 130.969L164.986 130.809L173.232 194.862L172.304 195.021Z" fill="#3F3D56"/>
<path d="M218.158 194.53L217.229 194.373L225.234 130.81L226.164 130.967L218.158 194.53Z" fill="#3F3D56"/>
<path d="M196.311 130.889H195.37V194.941H196.311V130.889Z" fill="#3F3D56"/>
<path d="M150.646 148.052L150.643 149.033L241.772 149.263L241.774 148.282L150.646 148.052Z" fill="#3F3D56"/>
<path d="M235.344 178.349L155.285 178.919L155.292 179.9L235.35 179.33L235.344 178.349Z" fill="#3F3D56"/>
<path d="M130.404 121.081C133.264 121.081 135.582 119.764 135.582 118.139C135.582 116.514 133.264 115.197 130.404 115.197C127.544 115.197 125.226 116.514 125.226 118.139C125.226 119.764 127.544 121.081 130.404 121.081Z" fill="#3F3D56"/>
</g>
<defs>
<clipPath id="clip0">
<rect width="245" height="213" fill="white"/>
</clipPath>
</defs>
</svg>
