<svg width="243" height="286" viewBox="0 0 243 286" fill="none" xmlns="http://www.w3.org/2000/svg">
<g clip-path="url(#clip0)">
<path d="M131.077 286C192.89 286 243 231.237 243 163.684C243 96.1306 192.89 41.3679 131.077 41.3679C69.264 41.3679 19.1544 96.1306 19.1544 163.684C19.1544 231.237 69.264 286 131.077 286Z" fill="#F2F2F2"/>
<path d="M65.7195 142.054C66.5179 140.531 66.9304 138.803 66.9146 137.048C66.9146 132.524 64.351 128.856 61.1887 128.856C58.0263 128.856 55.4627 132.524 55.4627 137.048C55.4469 138.803 55.8595 140.531 56.6578 142.054C55.8742 143.584 55.4627 145.307 55.4627 147.06C55.4627 148.813 55.8742 150.537 56.6578 152.066C55.8742 153.596 55.4627 155.32 55.4627 157.073C55.4627 158.826 55.8742 160.549 56.6578 162.079C55.8742 163.608 55.4627 165.332 55.4627 167.085C55.4627 168.838 55.8742 170.561 56.6578 172.091C55.8595 173.614 55.4469 175.342 55.4627 177.097C55.4627 181.621 58.0263 185.289 61.1887 185.289C64.351 185.289 66.9146 181.621 66.9146 177.097C66.9304 175.342 66.5179 173.614 65.7195 172.091C66.5031 170.561 66.9146 168.838 66.9146 167.085C66.9146 165.332 66.5031 163.608 65.7195 162.079C66.5031 160.549 66.9146 158.826 66.9146 157.073C66.9146 155.32 66.5031 153.596 65.7195 152.066C66.5031 150.537 66.9146 148.813 66.9146 147.06C66.9146 145.307 66.5031 143.584 65.7195 142.054V142.054Z" fill="#3F3D56"/>
<path d="M61.1887 135.228C64.351 135.228 66.9146 131.56 66.9146 127.036C66.9146 122.512 64.351 118.844 61.1887 118.844C58.0264 118.844 55.4628 122.512 55.4628 127.036C55.4628 131.56 58.0264 135.228 61.1887 135.228Z" fill="#3F3D56"/>
<path d="M61.1887 125.215C64.351 125.215 66.9146 121.548 66.9146 117.024C66.9146 112.499 64.351 108.832 61.1887 108.832C58.0264 108.832 55.4628 112.499 55.4628 117.024C55.4628 121.548 58.0264 125.215 61.1887 125.215Z" fill="#3F3D56"/>
<path d="M82.6237 48.5067C83.406 47.4183 84.1185 46.2721 84.7561 45.0763L69.7108 42.3759L85.9827 42.5081C87.5437 38.7964 88.3953 34.7757 88.4853 30.692C88.5754 26.6082 87.9021 22.5474 86.5065 18.7578L64.6757 31.1341L84.8088 14.9606C82.9226 11.3985 80.3854 8.299 77.3553 5.85521C74.3253 3.41143 70.8672 1.67571 67.1965 0.756178C63.5259 -0.163354 59.7213 -0.246999 56.0198 0.510455C52.3182 1.26791 48.7991 2.85023 45.6815 5.15886C42.564 7.46748 39.9148 10.453 37.899 13.9293C35.8833 17.4056 34.5441 21.2983 33.965 25.3649C33.3859 29.4315 33.5791 33.5849 34.5328 37.5663C35.4865 41.5477 37.1802 45.2718 39.5083 48.5067C38.2889 50.2007 37.2402 52.0334 36.3803 53.973L55.9102 65.0616L35.0859 57.4236C33.6237 62.1474 33.2623 67.195 34.0345 72.1098C34.8067 77.0246 36.688 81.6514 39.5083 85.5716C36.3261 89.9929 34.3466 95.3036 33.796 100.896C33.2455 106.489 34.1461 112.139 36.3949 117.198C38.6437 122.258 42.1499 126.525 46.5127 129.509C50.8756 132.494 55.9188 134.077 61.066 134.077C66.2131 134.077 71.2564 132.494 75.6192 129.509C79.9821 126.525 83.4883 122.258 85.7371 117.198C87.9859 112.139 88.8865 106.489 88.3359 100.896C87.7854 95.3036 85.8059 89.9929 82.6237 85.5716C86.4261 80.288 88.4933 73.7611 88.4933 67.0391C88.4933 60.3172 86.4261 53.7903 82.6237 48.5067L82.6237 48.5067Z" fill="white"/>
<path opacity="0.1" d="M33.6386 67.0392C33.6291 73.7629 35.6973 80.2931 39.5082 85.5716C36.326 89.993 34.3465 95.3036 33.7959 100.896C33.2454 106.489 34.146 112.139 36.3948 117.199C38.6436 122.258 42.1498 126.525 46.5126 129.509C50.8754 132.494 55.9187 134.077 61.0659 134.077C66.213 134.077 71.2563 132.494 75.6191 129.509C79.9819 126.525 83.4882 122.258 85.737 117.199C87.9858 112.139 88.8864 106.489 88.3358 100.896C87.7853 95.3036 85.8058 89.993 82.6236 85.5716C86.2997 80.4715 33.6386 63.6749 33.6386 67.0392Z" fill="black"/>
<path d="M211.718 244.483C204.621 272.122 149.856 297.758 91.618 279.897C33.3803 262.036 -6.27669 207.442 0.820839 179.802C7.91836 152.162 59.0827 161.943 117.32 179.804C175.558 197.665 218.816 216.843 211.718 244.483Z" fill="#3F3D56"/>
<path opacity="0.1" d="M211.718 244.483C204.621 272.122 149.856 297.758 91.618 279.897C33.3803 262.036 -6.27669 207.442 0.820839 179.802C7.91836 152.162 59.0827 161.943 117.32 179.804C175.558 197.665 218.816 216.843 211.718 244.483Z" fill="black"/>
<path d="M211.718 244.483C218.816 216.843 177.358 179.957 119.121 162.096C60.883 144.235 7.91835 152.162 0.820821 179.802C-6.27671 207.442 35.1806 244.328 93.4183 262.189C151.656 280.05 204.621 272.122 211.718 244.483Z" fill="#3F3D56"/>
<path opacity="0.1" d="M88.4685 224.022C106.2 224.022 120.575 219.471 120.575 213.856C120.575 208.242 106.2 203.691 88.4685 203.691C70.7365 203.691 56.3619 208.242 56.3619 213.856C56.3619 219.471 70.7365 224.022 88.4685 224.022Z" fill="black"/>
<path d="M128.003 155.356L87.3951 199.735L70.3273 181.083C69.2332 179.887 67.7492 179.215 66.2018 179.215C64.6544 179.215 63.1704 179.887 62.0762 181.082L61.463 180.08C59.1845 182.57 59.7977 187.61 62.0762 190.1L84.2214 214.301C85.056 215.214 86.1879 215.726 87.3681 215.726C88.5484 215.727 89.6805 215.215 90.5155 214.303L136.25 164.374C138.53 161.885 139.357 157.32 137.078 154.83C134.801 152.341 130.281 152.867 128.003 155.356Z" fill="#57B894"/>
<path opacity="0.1" d="M128.003 155.356L87.3951 199.735L70.3273 181.083C69.2332 179.887 67.7492 179.215 66.2018 179.215C64.6544 179.215 63.1704 179.887 62.0762 181.082L61.463 180.08C59.1845 182.57 59.7977 187.61 62.0762 190.1L84.2214 214.301C85.056 215.214 86.1879 215.726 87.3681 215.726C88.5484 215.727 89.6805 215.215 90.5155 214.303L136.25 164.374C138.53 161.885 139.357 157.32 137.078 154.83C134.801 152.341 130.281 152.867 128.003 155.356Z" fill="black"/>
<path d="M128.003 153.389L87.3951 197.768L70.3273 179.115C69.2332 177.919 67.7492 177.247 66.2018 177.247C64.6544 177.247 63.1704 177.919 62.0762 179.115V179.115C61.5344 179.707 61.1046 180.41 60.8114 181.184C60.5182 181.957 60.3673 182.786 60.3673 183.624C60.3673 184.461 60.5182 185.29 60.8114 186.064C61.1046 186.837 61.5344 187.54 62.0762 188.132L84.2215 212.334C85.056 213.246 86.1879 213.759 87.3682 213.759C88.5484 213.759 89.6805 213.247 90.5155 212.336L136.25 162.406C136.792 161.814 137.222 161.112 137.516 160.338C137.809 159.564 137.961 158.735 137.961 157.898C137.961 157.06 137.81 156.231 137.517 155.457C137.224 154.684 136.794 153.981 136.252 153.389V153.389C135.158 152.193 133.675 151.522 132.128 151.522C130.581 151.522 129.097 152.193 128.003 153.389Z" fill="#57B894"/>
<path d="M147.778 228.933C147.778 228.933 144.146 230.124 142.33 232.505C142.33 232.505 139.062 234.092 137.064 233.696C135.067 233.299 131.435 237.267 134.341 238.458C137.246 239.649 155.041 242.824 155.404 241.832C155.767 240.839 155.767 230.719 155.767 230.719L147.778 228.933Z" fill="#575A89"/>
<path d="M176.305 227.229C176.305 227.229 172.912 229.08 171.495 231.765C171.495 231.765 168.523 233.939 166.493 233.921C164.463 233.903 161.505 238.491 164.554 239.122C167.602 239.753 185.632 239.56 185.835 238.514C186.038 237.469 184.456 227.497 184.456 227.497L176.305 227.229Z" fill="#575A89"/>
<path d="M153.679 92.7025C158.192 92.7025 161.85 88.7045 161.85 83.7726C161.85 78.8408 158.192 74.8427 153.679 74.8427C149.166 74.8427 145.508 78.8408 145.508 83.7726C145.508 88.7045 149.166 92.7025 153.679 92.7025Z" fill="#FFB9B9"/>
<path d="M160.307 85.2609C160.307 85.2609 161.215 92.008 162.849 92.8017C163.986 93.4134 165.028 94.217 165.936 95.183L161.396 97.5643L152.499 96.969C152.499 96.969 153.225 92.6033 151.954 90.4204C150.683 88.2376 160.307 85.2609 160.307 85.2609Z" fill="#FFB9B9"/>
<path d="M177.194 117.21C177.194 117.21 181.37 128.918 177.194 140.229C173.017 151.541 171.202 153.327 171.202 153.327L169.931 138.443L171.392 136.994C171.392 136.994 172.277 132.479 171.558 129.806C170.838 127.132 171.928 118.798 171.928 118.798L177.194 117.21Z" fill="#FFB9B9"/>
<path d="M145.962 142.611C145.962 142.611 140.696 155.708 141.241 162.058C141.786 168.408 145.962 195.198 145.962 195.198C145.962 195.198 145.417 229.727 147.052 229.727C148.686 229.727 156.494 232.902 156.494 230.719C156.494 228.536 158.128 176.147 158.128 176.147C158.128 176.147 167.388 199.167 168.296 200.953C169.204 202.739 175.015 230.719 177.012 230.719C179.01 230.719 185.183 228.734 184.639 227.345C184.094 225.956 177.92 194.999 174.47 187.062C171.02 179.124 171.746 149.159 171.746 149.159L165.936 135.268L145.962 142.611Z" fill="#2F2E41"/>
<path d="M151.228 79.7046C151.228 79.7046 146.144 79.3077 145.78 77.9186C145.417 76.5295 144.691 75.3389 145.054 75.3389C145.417 75.3389 145.599 74.3466 145.599 74.3466C145.599 74.3466 145.962 74.1482 146.144 74.3466C146.325 74.5451 146.507 72.9576 146.507 72.9576C146.507 72.9576 146.688 72.3622 146.87 72.7591C147.051 73.156 147.051 72.9576 147.233 72.3622C147.415 71.7669 148.323 71.37 148.323 71.37C148.323 71.37 151.773 71.5685 152.317 70.7747C152.862 69.9809 159.036 70.5762 160.307 71.5685C161.578 72.5607 167.207 76.1326 166.299 79.1093C165.391 82.0859 162.123 88.6345 162.123 89.6267C162.123 90.6189 160.852 90.4205 160.488 89.4282C160.125 88.436 157.22 87.2454 157.22 86.6501C157.22 86.0547 155.586 80.4984 154.678 80.8952C153.77 81.2921 152.68 84.4672 152.317 83.8719C151.954 83.2765 151.228 79.7046 151.228 79.7046Z" fill="#3F3D56"/>
<path d="M176.286 106.891C176.286 106.891 168.841 94.9846 166.662 94.3893C164.483 93.7939 159.58 92.2064 159.58 92.2064C159.58 92.2064 154.678 93.0002 153.225 93.7939C151.772 94.5877 146.325 95.9768 146.143 98.3581C145.962 100.739 147.596 123.56 146.688 125.743C145.78 127.926 142.693 148.762 144.146 148.365C145.599 147.969 144.509 142.809 150.865 142.611C157.22 142.412 160.67 138.245 163.03 143.206C165.391 148.167 172.109 151.937 172.109 151.937C172.278 150.338 172.521 148.748 172.836 147.175C173.38 144.397 171.383 137.65 171.383 137.65C171.383 137.65 171.565 121.973 172.291 120.187C173.017 118.401 176.286 106.891 176.286 106.891Z" fill="#575A89"/>
<path d="M173.562 106.494L176.286 106.891C176.286 106.891 176.104 110.86 176.831 112.051C177.557 113.241 178.828 119.393 178.102 119.591C177.375 119.79 170.838 120.98 170.838 120.98L170.475 111.852L173.562 106.494Z" fill="#575A89"/>
<path d="M144.146 113.638C144.146 113.638 142.33 126.537 141.422 128.124C140.515 129.712 135.975 151.937 135.975 151.937C135.975 151.937 128.51 163.282 132.142 163.084C135.773 162.885 139.607 152.731 139.607 152.731C139.607 152.731 150.865 130.307 150.865 127.926C150.865 125.545 153.588 113.638 153.588 113.638H144.146Z" fill="#FFB9B9"/>
<path d="M149.412 96.1752L146.144 97.5643C146.144 97.5643 141.967 113.837 142.875 115.226C143.783 116.615 154.678 114.63 154.859 114.035C155.041 113.44 152.862 96.1752 149.412 96.1752Z" fill="#575A89"/>
<path d="M3.41833 137.989C3.41833 151.817 11.3566 163.007 21.1667 163.007Z" fill="#3F3D56"/>
<path d="M21.1666 163.007C21.1666 149.023 30.0252 137.708 40.9728 137.708Z" fill="white"/>
<path d="M9.84888 139.242C9.84888 152.378 14.9109 163.007 21.1667 163.007Z" fill="white"/>
<path d="M21.1666 163.007C21.1666 145.139 31.4058 130.68 44.0595 130.68Z" fill="#3F3D56"/>
<path d="M17.4329 163.184C17.4329 163.184 19.9499 163.099 20.7084 162.509C21.467 161.918 24.5802 161.213 24.7684 162.16C24.9566 163.107 28.551 166.869 25.7093 166.894C22.8676 166.919 19.1065 166.41 18.3494 165.906C17.5923 165.402 17.4329 163.184 17.4329 163.184Z" fill="#A8A8A8"/>
<path opacity="0.2" d="M25.76 166.564C22.9183 166.589 19.1572 166.081 18.4001 165.577C17.8235 165.193 17.5938 163.816 17.5169 163.18C17.4636 163.183 17.4329 163.184 17.4329 163.184C17.4329 163.184 17.5923 165.402 18.3494 165.906C19.1065 166.41 22.8676 166.919 25.7093 166.894C26.5296 166.887 26.8129 166.568 26.7974 166.095C26.6834 166.381 26.3706 166.559 25.76 166.564Z" fill="black"/>
</g>
<defs>
<clipPath id="clip0">
<rect width="243" height="286" fill="white"/>
</clipPath>
</defs>
</svg>
